<svg xmlns="http://www.w3.org/2000/svg" width="10.094" height="13.09"><path d="M3.421 6.5c1.889 0 4.1-.62 4.1 1.63S5.99 13 4.101 13-.004 10.37-.004 8.13 1.532 6.5 3.421 6.5zM.684 2.44a.753.753 0 01.684.81v4.88A.694.694 0 110 8.13V3.25a.754.754 0 01.684-.81zM2.737.81a.764.764 0 01.684.82v6.5a.694.694 0 11-1.369 0v-6.5a.764.764 0 01.685-.82zM4.789 0a.753.753 0 01.684.81v7.32a.694.694 0 11-1.368 0V.81A.753.753 0 014.789 0zm2.052 1.63a.753.753 0 01.684.81v5.69a.694.694 0 11-1.368 0V2.44a.753.753 0 01.684-.81zM4 8l3.232-.37C7.632 7.16 9.599 5.52 10 6s-.6 2.52-1 3l-3 4c-.4.48-1.6-1.52-2-2a3.891 3.891 0 010-3z" fill="#fff" fill-rule="evenodd"/></svg>